<?xml version="1.0" encoding="utf-8"?>
<svg xmlns="http://www.w3.org/2000/svg" viewBox="0 0 668 615">
  <defs>
    <filter id="megu-blur">
      <feOffset in="SourceGraphic" dx="15" dy="15" result="corner" />
      <feGaussianBlur in="corner" stdDeviation="10" />
    </filter>
  </defs>
  <g filter="url(#megu-blur)" width="653" height="600">
    <path d="M362.3 31.5c21.2 2 45.6 9.4 63.9 19.4 -19.9 6.1-39.2 10.3-59.7 6.7 -13.2-2.4-26.1-6.9-40-6.3 14.9-6.5 30.9-6.8 47.7-8C369.6 39.6 365.3 36.7 362.3 31.5z" fill="#F2EF7C"/>
    <path d="M177.4 149.9c4.9-23.1-10.9-43.1-35.5-46 -23-2.7-40.5 5.4-53.1 24.8 -4.8 7.4-7.4 11.1-10.2 11.4 -5.6 0.6-10.8-6.7-12.6-9.1 -9.4-13-30.7-37.7-62.6-73 0.1-1.3 0.3-3.8 1-7 0 0 5.3-24.4 40-43 2.3-1.2 5.4-2.5 9-2 2.2 0.3 3.9 1.2 5 2 24.9 45.7 42.9 78.9 44.2 81.6 0.2 0.3 0.8 1.6 1.9 1.8 1.1 0.2 2.2-0.9 3.3-1.6 15.2-9.6 31.6-14.7 49.5-10 25.4 6.8 40.2 24.8 48.3 48.9 1.7 5 2.6 10.3 3.8 15.4 3.1 5.2 3.6 10.5 0.3 15.8 -2.6 2.1-5 0.7-7.4-0.4 -5.7-2.7-11.2-5.8-17.2-7.7C182.4 151 179.6 151.6 177.4 149.9z" fill="#DC8461"/>
    <path d="M423.3 600c-10.9-19.4-23.8-37.6-35.8-56.4 -12.6-19.9-25.6-39.6-38.4-59.4 -0.7-1.1-1.6-2.1-2.5-3.1 -4.3-0.6-4.8-4.7-6.8-7.4 -12.3-18.2-24-36.7-35.9-55.2 -1.2-1.8-2.3-3.7-1.3-6.1 2.3-3.4 5.2-5.7 9.6-5.6 2.4 0.3 3.8 2 4.9 3.8 11.7 18.8 24.2 37 35.4 56 1.8 3 5.1 5.2 4.6 9.4 3 8.4 8.8 15.2 13.4 22.5 21.4 33.8 43.1 67.5 64.6 101.3C431.3 600 427.3 600 423.3 600z" fill="#DC8461"/>
    <path d="M289.2 247.9c9 15.7 21.1 28 38 35.1 1.4-0.5 2.7 0.3 4.1 0.5 1.8 0.2 2.8 1.8 4.5 2.3 5.9 2.4 11.7 5 18.1 6.1 1.3 0.2 2.5 0.8 3.2 2.1 0.1 4.2-2 8-6.2 9 -17 4.1-32.3 13.3-49.5 17 -3.6 0.8-7.1 1.6-10.7 2.1 -2.1 0.5-4.1 1.4-6.2 1.3 -5.2-0.3-10 1-14.4 3.8 -3.7-1.2-5.6-4.8-8.6-6.8 -0.5-1.8-1.4-2.9-3.6-3.2 -2.9-0.4-5.7-1.4-7.6-4 -5.9-7.3-10.8-15.3-15.4-23.5 -9-13-16.9-26.7-25.4-40 -7-11-13.3-22.3-16.5-35 -1.2-4.7-3.3-9.7 0.8-14.2 3.7-2.7 3.5-7.1 4.7-10.9 1.7-5.5 4.5-10.6 6.4-16 2.1-1.7 2.7-4 3.1-6.5 0.3-2.2 0.9-4.2 2.4-5.8 8-10.6 16.5-20.9 22.9-32.6 3.8-7 7.4-14.1 10.7-21.4 0.3-0.8 0.6-1.6 1-2.3 1-1.8 2.1-3.5 4.5-3.4 2.2 0.1 2.9 2 3.5 3.7 2 5.6 4 11.3 5.7 17 6.6 21.6 14.1 43 19.7 64.9 2.6 10.1 4.3 20.4 5 30.8C284.1 228.1 286 238.1 289.2 247.9z" fill="#583E43"/>
    <path d="M506.3 576.9c-0.7 0.3-1.4 0.7-2 1 -1.9 4.6-5.9 4.4-9.8 4.2 -8.7 5.6-17.2 11.2-28.6 7.7 -13.3-4.2-18.1-11.3-15.8-25.1 1.6-9.8 2.9-19.7 4.3-29.5 -0.4-2 0.6-3.5 1.9-4.9 1.1-1.2 2.3-2.5 3.5-3.5 7.7-6.6 11.5-14.6 10.4-25 -0.6-5.7-0.7-11.7 2.8-16.8 5.7-4.6 12.1-7.7 19.6-7.9 4.4 1.9 8.9 2 13.3 0 12.4 0.2 25.4 12.8 25.9 25.1 0 1.2 0.1 2.3 0.3 3.5 0.7 2.2 0 4.3-0.9 6.2 -2.9 6.3-5.6 12.6-9.5 18.4 -0.2 0.4-0.5 0.8-0.8 1.2 -4.1 5.9-4.8 11.1-0.3 17.8 4.9 7.1 0.6 18.2-7.7 24.3 -1.1 0.8-2.2 1.4-3.3 2.2C508.6 576.4 507.3 576.1 506.3 576.9z" fill="#5F4F5E"/>
    <path d="M539.2 151.9c1 0.7 2 1.3 3 2 -1.5 4.6-5.6 6.6-8.9 3.3 -5-4.9-11.4-5-17.3-6.8 -4.1-1.2-6.3 0.5-6.8 4.7 -0.2 1.7-0.4 3.3-1.3 4.8 -0.8 1.2-0.7 3-2.1 3.9 -5.2 2.1-8.7-1.8-12.6-3.9 -2.4-1.2-5.3-1-7.5-2.8 -11.1-4.5-22.5-7-34.5-7.5 -0.8-0.1-1.6-0.1-2.4-0.2 -8.4-0.4-16.8 0.5-25.2 0.1 -12.1-0.5-20.9 5.3-29.7 12.4 -6.3 5.2-13.8 8.5-22.2 9.3 -2.3 0.2-4.3 0.1-5.5-2.3 -17.2-6.5-34.1-13.5-48.7-24.9 -3.2-2.5-8.2-5-7.4-9.2 0.8-4.1 6.5-3.8 10.3-4.6 26.7-5.9 53.7-6.7 80.9-6.4 2.8-1.5 5.7-2.1 8.8-2.5 1.1-0.2 2.2-0.3 3.4-0.3 2.6-0.3 5.1-0.6 7.7-0.5 1.4 0.4 2.7 0.9 4.2 0.7 3.1-0.2 6.3-0.2 9.4-0.4 1.1 0 2.3 0.1 3.4-0.1 3.1-0.4 6.1 1 9.3 0.5 1.9 0.5 3.8 1.1 5.8 0.5 5.3 0.5 10.6 0.6 15.7 1.9 1.9 0.4 3.7 0.6 5.6 0.4 4.7 1 9.3 1.9 13.9 3.2 1.4 0.6 2.4 1.9 4.1 2.1 4.8 1.1 9.6 2.1 13.9 4.7 1.2 0.1 2.2 1.1 3.4 1.2 4.5 1.4 8.7 3.5 12.8 5.7 0.7 0.6 1.4 1.1 2.2 1.5 2.3 1.3 4.6 2.6 7 3.8 1 0.5 2 1 3.1 1.2C537.4 148.1 538.1 150.2 539.2 151.9z" fill="#6D4C51"/>
    <path d="M415.3 113.7c8.6-12.5 18.2-24.2 28.8-35 6.5-6.7 6.1-9.2-2.4-12.8 -8.5-3.6-16.4-8.1-23.9-13.4 -1.2-0.8-3-1.8-2.6-3.3 0.5-1.8 2.6-1.2 3.9-1.1 11.6 0.2 23.3 0 34.9 0.6 12.2 0.6 24.6-0.3 36.8-1.4 11.9-1.1 17.5 0.9 22.3 11.8 3.5 8 9 14.2 14.4 20.8 5.7 7 9.4 14.7 8.9 24.2 -0.7 12.3-0.8 24.6-1.2 36.9 -2.2 1.1-3.8-0.2-4.6-1.7 -2.1-3.7-5.5-5.5-9-7.5 -14.9-8.7-31-13.8-48.1-16.2 -0.8-0.1-1.7 0-2.4-0.5 -7.8-4.5-16.4-3.5-24.8-3.5 -0.3 0-0.7-0.1-1 0.1 -8.2 4.5-17.2 2.7-25.8 3.5C417.8 115.3 416.2 115.7 415.3 113.7z" fill="#6D4C51"/>
    <path d="M492.3 479.1c-6.6 0.6-12.4 3.6-18.1 6.6 -1.4-0.6-1.8-1.8-2.1-3.2 -0.4-2.6-2.1-4.2-4.4-5.1 -4.1-1.6-7.5-4.3-11.2-6.5 -14-8.2-37-6-48.2 4.6 -3.1 2.9-5.3 6.4-6.6 10.4 -0.5 1.6-0.6 3.4-2.6 3.9 -0.3-1-0.6-2-0.8-2.9 -3.1-2.6-2.8-6.4-3.1-9.7 -0.6-5.6-0.3-11.3-0.1-17 0.2-3.8 1.9-6.5 5.1-8.6 10-6.3 21-6 31.9-4.1 8.7 1.5 17.2 4 25.7 6.3 18.1 4.9 33.4-0.6 47.8-11.1 9-6.6 17.6-13.7 25.6-21.5 5.7-5.5 9.3-4.8 12.5 2.4 1.8 4 3.4 8 4.7 12.1 0.9 2.7 1.3 5.5 0 8.3 2.5 11.8-1.5 22.6-5.5 33.3 -3.1 8.2-6.3 16.4-9.5 24.6 0.3 1.3 0.1 2.4-0.8 3.4 -0.5 0.6-1.2 0.9-2 0.7 -1.9-15.2-10.4-24.6-24.4-27C501.6 479 497 479 492.3 479.1z" fill="#F8DDC4"/>
    <path d="M399.2 490c1.1-14.1 13.8-24 31.2-26.1 16.3-1.9 28.9 5.6 41.7 13.4 3.5 2.1 2.6 5.3 2.2 8.4 -1.5 5.5-2.9 11-1.8 16.7 2 10.6-3 18.3-10.2 25.1 -2.7 2.5-5.3 5.1-7.9 7.6 -4.6 2.5-9.4 2.6-14.3 1.5 -4.5-1.2-10-0.5-11.7-6.6 -0.4-0.3-0.7-0.6-1.1-1 -1-0.6-2.3-0.5-3.1-1.4 -3.3-3.5-5.6-7.8-8.5-11.6 -1.5-2-3.3-3.7-5.7-4.7 -3.5-3.4-7.8-6.5-7.4-12.3C401.4 496.1 399.3 493.4 399.2 490z" fill="#FDFCFD"/>
    <path d="M366.2 169c14.5 0.8 25.2-7.2 35.3-16 2.8-2.4 5.4-4.4 9-4.6 12.9-0.8 25.8-2.9 38.7-0.4 0.1 0.1 0.2 0.3 0.2 0.4 -1.2 4.8-14.9 16.4-19.7 16.5 -6.1 0.2-10.2 4.3-14.9 7.3 -1.2 0.7-1.3 2.3-1.3 3.6 -0.1 4.8-1.8 9.1-4.4 13 -2.3 3.4-2.2 6.4 1 9.2 3 2.7 5.2 5.9 7.2 9.4 2.1 3.6 5.4 6.3 8.6 8.8 4.5 3.5 8.1 7.5 6.3 13.9 -0.4 0.7-0.9 1.2-1.5 1.5 -10.2-0.1-16.8-6-22-13.9 -1-1.6-1.4-4.1-4.2-2.4 -2 1-3.9 2.5-6.4 1.5 -3-3.2-1.2-5.1 1.9-6.6 -1.6-9.7-1.6-9.6-9.9-5.8 -7.4 3.4-15.4 5.2-23.5 6.3 -7.2 1-14 2.6-20.3 6.2 -1 0.3-1.3-0.1-1-1 1.7-1.3 3.3-2.6 5.2-4.1 -16.7-1.8-33.6 14.1-30.1 28.6 -2.5-0.7-4.4-1.9-5.6-3.9 -3.2-5.5-5.1-3.6-6.7 1 -0.5 1.4-0.9 2.9-1.5 4.2 -0.7 1.8 0.8 4.9-1.6 5.2 -2.3 0.3-3.6-2.5-4.9-4.4 -3.3-4.8-3.7-10-1.6-15.2 7-17.5 24.4-29.2 43.3-29.3 8.7-0.1 17.3 0 26 0 3.2 0 6.2-0.4 9.1-3.2 -4.4-1.8-8.1 1.3-12-0.3 4.6-2.4 10.7-2.5 12.5-8.6 0.3-1.3 0.7-2.7 1-4 1-0.9 2.1-1.7 3-2.6 0.7-0.8 1.9-1.9 1.8-2.7 -0.2-1.5-2-1.5-3.2-1.6 -7.2-1-14.4-1.6-22.1-5C361.1 169.4 364 170.9 366.2 169z" fill="#71595D"/>
    <path d="M590.6 227.8c-3.4 15.6-5.6 31.4-4.9 47.5 0.8 5.1 2.1 10.4-3.5 13.8 -4.4 2.1-8.9 1-13.2-0.3 -16-4.8-30.8-12.3-45.5-20.1 -1.2-0.7-2.1-1.6-2.8-2.8 -1.2-2.4-0.2-4.6 1-6.6 2.9-4.8 5.6-9.8 9.5-14 1.9-2.1 2.8-4.5 2.6-7.3 0.8-2.5 0.1-4.9-0.5-7.4 0.4-2.2-1.8-4.2-0.8-6.5 6.7-10.9 25.4-15.7 40.7-8.7 4.7 2.1 9.2 4.5 13.6 7.2C588.9 223.9 590.1 225.5 590.6 227.8z" fill="#DA4549"/>
    <path d="M357.2 476.2c-3-2.2-4.5-5.4-6.2-8.5 0.1-2.8 2.3-3.8 4.4-4.8 7-3.2 14.2-6.3 21.4-8.9 3.8-1.4 6.7-3.3 8.6-6.8 1.4-1 2.8-2.2 4.2-3.2 3.2-2.5 3.6-5 1-8.1 0-1 0.4-1.9 1.2-2.5 1.4-0.9 3-0.9 4.3-0.2 3.7 2.1 6.4 0.9 9.4-1.7 4.3-3.6 8.9-7 13.7-9.9 5.6-3.4 10-2.7 14.1 2.3 1.9 2.3 3.9 4.5 6 6.6 2 2 4.1 2.1 6.2 0.3 2.6-2.1 5.5-3.7 8.1-5.8 3.8-3.1 7.8-3.3 12-0.7 3.8 2.4 7.8 4.5 11.7 6.8 4.5 2.6 4.7 2.5 6.4-2.6 1.6-4.9 3.4-9.8 5.8-14.3 1.5-2.8 3.5-4.6 6.8-2.5 0.7 0.8 0.6 1.8 0.4 2.8 -0.5 5.1-3.8 9.5-4.6 15.2 6.3-3.9 12.2-7.5 17.4-12.3 -1.8-1.7-3.7-0.8-5.4-1.3 -1.7-0.5-3.8-0.6-3.1-3.4 2.7-2.3 6.2-0.4 9.1-1.6 1.7-0.7 3.5-0.9 5.1-1.9 2.5-2.7 1.3-6 1.2-9 -0.1-1.8-0.6-3.6-0.6-5.4 0.1-5.2 2.3-7.5 7.5-7.8 3.7-0.2 7.3-0.5 10.7-2 1.7-0.2 3.4-0.1 4.9 1.1 0.6 0.6 0.9 1.3 0.9 2.2 -1.7 4.1-5.6 3.4-8.9 4.1 -5.8 1.1-6.9 2.2-6.6 7.3 0.1 1.1-0.3 2.5 1.1 3 1.1 0.4 1.8-0.6 2.6-1.2 6.5-5.1 13.1-10.3 20.6-14 5 0.7 10.4 0.3 13.9 5.1 0.4 2.4-1.1 3.7-2.9 4.7 -14.3 8.4-25.9 20.2-38.7 30.6 -9.6 7.7-18.5 16.3-29.7 21.7 -4.3 2.1-8.8 3.4-13.4 3.5 -10.1 0.3-20.3 0.9-30.1-2.6 -5-1.8-10.3-2.6-15.5-3.7 -18.1-3.8-33 2.2-45.8 14.8 -1.4 1.3-2.1 3.5-4.5 3.7C373.8 468.9 365.5 472.5 357.2 476.2z" fill="#FBC960"/>
    <path d="M382.1 465.2c0.3-2.5 1.7-4.2 3.4-5.9 13.4-13.2 29.2-18.6 47.9-14.8 13 2.6 25.4 7.8 39.2 6.8 9.9-0.7 19.1-2.9 26.9-9.2 10.9-8.7 21.9-17.4 32.5-26.5 9.6-8.3 19.4-16.2 30.5-22.4 4.3-1.9 7.5-0.4 9.7 4.3 2.5 5.4 0.6 10.8-0.3 16.2 -1.3 8.5-5.1 16.1-10.7 22.6 -2.1 3.6-5.6 5.4-9.3 6.9 -0.8 0.5-1.9 0.2-2.7 0.8 -0.3 0.1-0.6 0.1-0.8 0.2 -2.1-7.2-4.7-14.2-7.6-21.1 -2-4.8-3.8-4.2-6.8-1.2 -7.1 7-14.8 13.4-22.5 19.8 -18.6 15.5-38.9 20.5-62.4 12.9 -12.3-4-24.9-7.6-38.2-4.7 -10.8 2.3-13.7 5.4-13.6 16.3 0.1 7 0.6 13.9 1 20.9C384 487.2 380.9 483 382.1 465.2z" fill="#DA4549"/>
    <path d="M289.2 247.9c-4.5-8.3-6.2-17.5-7.1-26.7 -2.7-27.1-11.4-52.6-19.5-78.3 -4.3-13.6-8.7-27.1-13.4-41.9 -10 23-21.2 43.9-38 61.1 -1.9 0.6-2.7-0.4-3-2.1 2.2-5.2-0.2-10.6 1-15.8 17.7-22.3 27.3-48.6 36-75.2 0.5-1.6 1-3.2 2-6.7C273.1 122.6 282.8 184.9 289.2 247.9z" fill="#FBC960"/>
    <path d="M550.9 442.9c2.8-2.3 5.6-4.7 8.4-7 6.8-4.6 14.9-4.2 22.4-6 10.4-2.5 20.6-5.4 30.4-9.8 9.1-4.1 14.5-11.4 18-20.4 7-18.1 4.8-35.3-5.5-51.6 -7.8-12.4-17-23.8-27.3-34.3 -5.6-5.7-11-11.6-15.2-18.5 -1.4-2.3-3-4.6-1.2-7.4 4.2-3.3 3.7-8.3 4.8-12.7 7.9 21.3 22.5 37.7 37.4 54.3 11.1 12.5 22.3 25.5 25.6 42.8 2.2 11.4 1.3 22.6-2.9 33.4 -4.5 11.6-12 20-24.2 24.2 -21.4 7.3-43.5 11.3-65.9 13.2C553.9 443.6 552.4 443.9 550.9 442.9z" fill="#FBC960"/>
    <path d="M549.4 159c8.4 2 15.3 7 22.5 11.4 14.5 8.8 28.3 18.6 40.6 30.4 4.5 4.4 3.9 7-2.1 8.6 -5.9 1.5-11.7 3.9-17.9 2.7 -1.5 0.5-2.9 0.6-4.4-0.1 -9.3-4.5-18.9-8.1-28.8-11.2 -0.8-0.3-1.4-0.8-2-1.5 -1.1-1.8-2.1-3.6-2.5-5.6 -0.2-2.7-1.5-5-2.6-7.4 -0.4-0.9-1.4-1.7-1.4-2.6 0.1-6.4-4.4-11.1-6.1-16.8C544.8 163.3 546.7 160.9 549.4 159z" fill="#6D4C51"/>
    <path d="M330.3 285.1c-1-0.7-2.1-1.4-3.1-2.1 14-0.2 26.6-5.6 39.6-9.9 2.2-0.7 3.2-1.9 4.4-3.6 4.2-6.2 8.3-12.3 12.6-18.4 0.8-1.1 2.1-2.7 3.6-2.1 1.7 0.6 0.5 2.7 1 4 1.9 2 3.2 1.9 3.9-1.1 1.3-5.6 2.3-11.3 2.6-17.1 0.2-3.8 1.1-7.5 1.3-11.3 0.1-2 0.7-4 3.5-3.7 3.6 3 4 7.6 5.2 11.6 2.2 7.3 3.5 14.9 5.5 22.3 2.4 8.4-1.1 14.4-7 19.3 -8.2 6.9-17.2 12.5-26.8 17.2 -2.7 1.3-5.6 2.2-8.7 1.8 -3.6-1.7-7.2-1.3-10.8 0 -7.5-0.3-14.5-3.1-21.5-5.2C334.1 285.7 332.1 285.7 330.3 285.1z" fill="#583E43"/>
    <path d="M530.6 506.1c0.3-0.4 0.5-0.8 0.8-1.3 7.8-3.3 16.5 2.2 17.3 11.5 0.7 8.1-0.8 15.8-6.3 22.3 -2.7 4.6-3.8 9.7-3.2 14.9 2.2 17.6-12 34-32.9 23.5 0.7-0.6 1.3-1.1 2-1.7 5.2-1.8 11-1.3 15.3-6.2 8.8-9.9 8.6-26.2-1.1-35.2 -1.3-1.2-2.4-2.3-2.5-4.1C523.5 521.8 528.5 514.6 530.6 506.1z" fill="#F26D4D"/>
    <path d="M558.2 197.9c11.8 3.8 23.7 7.3 34.2 14.1 -0.3 5.3 0.1 10.6-1.9 15.7 -7.2-4.5-14.3-9.2-22.5-11.7 -13.2-4-24.6-0.3-34.5 8.8 -5.6-3.3-5-8.9-5.2-14.2 0.7-3.9 4.2-5.5 6.7-7.9 0.6-0.6 1.3-1 1.9-1.5 2.8-2.4 6.1-4 9.4-5.4C550.7 194 554.8 194.6 558.2 197.9z" fill="#FBC960"/>
    <path d="M549.4 159c1 3.5-2.3 5.1-3.3 7.6 -0.9 5.2-4.7 8.2-9.8 6.4 -5-1.7-10.2-2.4-15-4.6 -0.6 0.1-1 0.3-1.5 0.7 -5.3 2.7-7.4 2.1-10-2.9 -1.2-2.5-3.3-4.6-3.3-7.7 0.3-1 0.8-1.9 0.7-2.9 -0.6-7.2 3.4-9.6 10.8-7.6 6.4 1.7 12.7 2.7 17.6 8.2 2 2.3 4.6-1 6.7-2.5C546.3 153.3 547.7 156.3 549.4 159z" fill="#F8DDC4"/>
    <path d="M415.3 113.7c11.7 0.4 23-2.4 34.5-3.7 15.6-1.7 29.8 5.4 44.6 8.4 11.4 2.3 21 8.5 31.2 13.5 4.4 2.1 5.2 7.3 9.5 9 1.2 2.1 4.5 2.8 4.2 6 -1.5 1.1-3.5 1.1-4.9 2.2 -1.1-0.5-2.1-1-3.2-1.4 -1.5-2.7-3.9-3.9-6.9-3.7 -0.8-0.4-1.5-0.8-2.3-1.2 1.6-6.2 1.6-6.2-4.7-10.1 -1.7-1-3.4-2-5.5-2.6 -1.4 2.2 0.6 5.7-2.8 6.8 -1-0.4-1.9-0.8-2.9-1.2 -2.7-6.7-7.8-6.9-13.7-5 -1.4-0.4-2.8-0.8-4.2-1.2 -0.3-3.7 3.6-3.8 5.4-6.1 -5.6-2.9-11.3-4.3-17.3-4.6 -2.4-0.1-3.6 0.3-2.4 3 0.7 1.5 1.4 3.1 0.1 4.7 -1.6-0.3-3.2-0.6-4.8-0.8 -0.5-0.4-0.1 0.3-0.4-0.2 -4.4-8-10-4.7-15.5-1.7 -1.9-0.1-3.8-0.2-5.6-0.2 -0.8-4.6 4.4-5.2 6-8.8 -3.4-1.1-6.6-0.7-9.8-0.2 -4.9 0.8-4.3 5.1-5.5 8.3 -1.1 0-2.1 0-3.2 0 -3.4-2.7-6.7-2.1-10.1 0 -1.3 0-2.6 0-4-0.1 -1-1.9 0.9-3.2 1-4.7 -4.5-1.1-6.5 1.9-8.6 4.8 -1 0-2.1 0.1-3.1 0.1 -2.4-1.4-2.2-3.4-1.1-5.5C409.4 113.5 412.8 114.3 415.3 113.7z" fill="#DA4449"/>
    <path d="M402.6 499.1c2.9 3.6 5.8 7.3 8.7 10.9 4.1 6.2 6.5 13.7 14.1 17 0.6 0.7 1.2 1.4 1.8 2.1 -10.9 8.2-13.1 7.7-21.7-2.9C398.6 517.6 399.1 508.6 402.6 499.1z" fill="#F8A65D"/>
    <path d="M399.2 220.2c-1 8-1.8 16-3 23.9 -1 6.6-1.1 13.8-8.6 17.7 0.3-3.1 0.6-6 0.9-8.8 1.4-11.2 1.7-22.4 1.8-33.6 0.1-9.5 0.1-9.5 9.7-9 0.2 2.2-2.9 3.5-1.7 6C399.7 217.4 400.7 218.5 399.2 220.2z" fill="#FAC860"/>
    <path d="M542.4 538.6c1.8-5.5 4.1-10.9 4.7-16.8 1.1-11.3-4.5-17.4-15.7-17 0.7-1 1.3-1.9 2-2.9 10.4 1.2 14.9 4.8 16.5 12.9C551.8 524.3 548.3 535.3 542.4 538.6z" fill="#F9EA87"/>
    <path d="M494.5 582.1c3.3-1.4 6.5-2.8 9.8-4.2 0.6 1.6 3.5 2.7 2.2 4.4 -1.4 1.8-4.2 1.7-6.5 1.6C497.9 583.9 496 583.7 494.5 582.1z" fill="#F1A35D"/>
    <path d="M428.3 530c3.9 2.2 7.8 4.4 11.7 6.6 -1.3 0.2-2.7 0.2-3.9 0.6C429.4 539.3 426.9 536.8 428.3 530z" fill="#F6A760"/>
    <path d="M409.3 117.7c0.4 1.8 0.7 3.7 1.1 5.5 -3 0.3-6 0.5-9.1 0.7C403.3 120.9 406.4 119.5 409.3 117.7z" fill="#EC9D5B"/>
    <path d="M534.5 149.2c-0.3-1.7-0.6-3.4-1-5.8 2.4 1.4 4.2 2.5 6 3.6 0 1.6-0.1 3.3-0.1 4.9C537.6 151 536 150.1 534.5 149.2z" fill="#F6A25C"/>
    <path d="M345.3 216c0.3 0.3 0.7 0.7 1 1 -1.6 2-3.3 3.9-6.2 7.5C341.6 220 342.7 217.5 345.3 216z" fill="#776064"/>
    <path d="M378.3 182c0.8 1.6 0.8 3-1 4C376 184.3 377.2 183.2 378.3 182z" fill="#7C6568"/>
    <path d="M550.9 442.9c1.5 0.1 3.1 0.2 4.6 0.2 -2.1 0.3-4.2 0.5-6.3 0.8C549.8 443.6 550.3 443.2 550.9 442.9z" fill="#E7B462"/>
    <path d="M341.1 472.8c2.7 2.2 3.8 5.4 5.5 8.3 -18.7 11.9-37.4 23.8-54 38.5 -12.2 10.8-23.6 22.6-36.7 32.3 -5.3 4-10.9 7.6-16.8 10.8 -4.3 2.3-6.5 2.1-7-3.5 -1.2-15.1-2.3-30.2-3.9-45.2 -2.7-25.2-8.7-49.5-22.8-71.1 -2.3-0.4-3.6-2.1-4.9-3.9 -7-9.6-14.7-18.5-24.8-25 -5.3-3.4-6.3-3.3-11.1 0.3 -11.1 8.3-19 19.4-27.2 30.4 -7.2 9.7-16.7 16.6-27.7 21.4 -3.9 1.7-8.2 2.5-12.6 1.1 -24.6 1.5-47.5-18.4-50.8-44 -2.1-16.6 1.2-32 9.8-46.4 14.2-23.9 29.1-47.4 39.7-73.3 5.8-14.1 7.3-29 5.9-44.1 -0.7-7.3 2-13.8 5.4-19.9 10.4-18.7 25.7-33 42.1-46.2 0.9 4.8 4.7 8.6 4.7 13.7 -1.5 3.3-4.3 5.5-6.8 7.9 -10.1 9.9-19.7 20.3-26.3 33 -2.7 5.3-4.2 10.7-4.3 16.7 -0.2 10.9 1.2 22-1.9 32.7 -4.1 14.5-10.5 28-17.2 41.3 -7.7 15.2-18.1 28.7-26.3 43.5 -10.4 18.5-14.3 37.9-6.4 58.4 3 7.9 6.9 15.6 15.6 19.1 3.5 2.7 7 1.8 10.5 0.1 13.7-1.8 23.6-9.7 32.5-19.7 10.2-11.6 20.2-23.4 32.5-33 1.7-1.3 3.6-2.4 5.4-3.6 8.8-5.6 17-4.1 25 1.7 19.8 14.2 33.1 33.4 42.2 55.7 8.5 21.1 12.9 42.9 13.3 65.6 0.1 4.2 1.1 8.2 1.1 12.4 0 3.3 1.6 3 3.8 1.4 6.7-5.2 13-10.8 19.3-16.5 18.3-16.5 37.4-32.1 58.4-45 3.7-2.3 7.3-4.7 11.4-6.1C337.4 472 339.3 471.2 341.1 472.8z" fill="#FBC960"/>
    <path d="M100.1 148.4c0.1-19.6 21.4-33.5 42.4-27.8 16.5 4.5 26.1 18.9 22.7 34.1 -3.4 15-20.9 25.7-37.4 22.8C111.1 174.7 100.1 163.2 100.1 148.4z" fill="#DA4549"/>
    <path d="M97.1 467.3c18.4-3.2 31.7-14.1 42.1-28.7 7.4-10.4 15.4-20 25.8-27.5 3.4-2.5 6.1-2.7 9.8-0.4 12.9 8.2 22.9 19.1 30.5 32.3 -23.2 5.6-45.6 13.8-68 21.7 -12.8 4.5-26.2 4.4-39.5 4.1C96.5 468.8 96.6 468.2 97.1 467.3z" fill="#583E43"/>
    <path d="M153.3 206c-3.3-3.6-7.8-6.9-4.1-12.7 4.2-4 9-7.4 12.3-12.3 1.9-2.7 4.3-2.7 7-1.4 8.8 4.4 17.2 9.4 24.9 15.4 2 1.6 3.2 3.4 1.8 6 -1.7 2.5-1.8 5.1-1.2 8.1 2.4 12.4 7.8 23.6 14.4 34.3 9.3 15.2 18.7 30.3 28.1 45.4 -0.3 4.5-1.5 8.5-5.7 11 -3.3 0.4-4.8-2.1-6.1-4.3 -10.3-16.9-21.7-33.1-31.7-50.2 -7.3-12.5-18.4-20.8-29.5-29.1 -2.5-1.9-5.1-3.8-7.5-5.7C154.4 209.3 153.1 208.1 153.3 206z" fill="#DC8461"/>
    <path d="M206.4 174.1c-1 5.7-3.8 10.6-6.4 15.7 -1.8 1.1-3.2 0.1-4.5-1 -6.9-6-14.7-10.7-23-14.6 -1.5-0.7-3.1-1.4-3.4-3.3 1.7-3 3.4-5.9 5.1-8.9 1-5.1 2.6-6.3 7.3-5.2 8.5 2.1 15.9 6.4 23.5 10.6C207.7 169 208.4 171.3 206.4 174.1z" fill="#DC8561"/>
    <path d="M169.2 170.9c12.1 3.4 21.7 10.7 30.9 18.9 0.4 4.6-1.1 8.4-4.8 11.2 -0.2-2.5-2.2-3.5-3.9-4.8 -7.4-5.6-15.5-10.2-23.6-14.6 -2-1.1-4-1.4-6.2-0.6C162.6 176.5 165.9 173.7 169.2 170.9z" fill="#F9D83B"/>
    <path d="M206.4 174.1c0.6-2.3-0.6-3.7-2.5-4.7 -7.2-3.8-14.3-7.5-22-10.2 -3.7-1.3-6-0.5-7.7 2.9 -2.3-4.9 0.4-8.6 3.1-12.2 2-1.7 4-1.7 6.4-0.9 8.6 2.7 16.4 7 24.4 11 1 0.7 2 1.4 3 2.1C209.7 166.1 210.8 171.2 206.4 174.1z" fill="#F9D83B"/>
    <path d="M153.3 206c20 13.3 37.6 28.6 49.4 50.2 8.2 15 18.3 28.9 27.6 43.3 6 2.8 8.4 8.4 10.5 14.2 0.2 4.2-3.1 5.8-6 7.6 -1.9 1.2-3.9 2.1-2.5 4.9 0.1 1.2-0.2 2.3-0.9 3.3 -1.7 2.5-0.9 4.1 1 6.4 4.6 5.6 10.4 9.6 15.9 14 5.3 4.2 11.5 3.4 17.5 3.7 2.2 0.3 3.4 2.1 4.4 3.7 10.8 16.8 21.5 33.6 32.3 50.4 1.2 1.8 1.4 3.7 0.9 5.7 11.7 18.2 23.5 36.4 35.2 54.6 1 1.5 1.7 3.2 2.5 4.8 -12.9 4.9-24 12.9-35.1 20.8 -21.4 15.2-40 33.6-60.2 50.2 -1.4 1.1-3.4 3.2-4.4 2.8 -2.1-0.8-1-3.5-1.1-5.4 -1-32-4.9-63.4-20.2-92.3 -8.7-16.4-19.7-30.8-35.1-41.6 -10.2-7.1-15.7-7-26 0 -7.6 5.2-14 11.8-20.2 18.6 -6.4 7-12.7 14.1-19.2 21 -7.8 8.2-17 13.8-28.5 15 -4-0.2-8 0.1-12 0.1 -12.5-6.4-17.3-18-19.9-30.6 -4.8-24.2 4.5-44.8 17.8-64.1 13.2-19.2 23.8-39.6 32.2-61.3 4.6-11.9 6.1-24.3 4.9-36.8 -1-11 2.3-20.3 8.2-29.1C131.1 227.2 141.8 216.2 153.3 206z" fill="#583E43"/>
    <path d="M387.2 448.5c-1.4 4.1-4.6 5.8-8.4 7.4 -9.3 3.7-18.5 7.8-27.7 11.8 -12.8-19.8-25.6-39.6-38.4-59.5 -1.5-0.2-2.9-0.8-3.8-2.1 -5-7.4-9.8-14.9-14.2-22.7 -0.6-1-0.7-2.2-0.6-3.4 1-4 5-5.1 7.6-7.5 8.6-8.3 17.4-16.4 26.2-24.6 8.4-7.8 17-15.4 26.9-21.3 8.3-4.9 14.7-11.8 21.1-18.8 2.2-2.4 4.3-6.6 8.4-4.9 3.7 1.6 2.1 5.9 2.3 9.1 0.2 3.8 0 7.7 1 11.4 4.2 15 4.1 30.6 7 45.7 1 5.2 1.5 10.5 2.5 15.7 0.4 2.2 0.4 4.3-0.1 6.4 0 3.5-2.6 5.3-5.1 6.8 -3.2 1.9-3.2 4-1.4 7 3.1 5 7.5 9.3 9.2 15.2 -1 5.2-2.1 10.4-7.3 13.4 -0.3 0.7-0.6 1.4-0.9 2.1 1.4 2.7 0.5 5-1 7.3C389.3 444.9 388 446.5 387.2 448.5z" fill="#583E43"/>
    <path d="M295.2 379.9c5.8 9.4 11.6 18.8 17.4 28.3 -3.1 1.8-6.1 3.5-9.2 5.3 -12.6-19.5-25.2-39.1-37.9-58.6 -5.1-3.4-5.2-5.8-0.7-10.8 3.9-4.5 5-4.5 9.8 0.1 2.4 2.5 3.4 6 5.6 8.7 4.7 7.1 9.1 14.3 13.7 21.4C295.1 376 295.4 377.9 295.2 379.9z" fill="#FDFCFD"/>
    <path d="M395.5 391.7c-4-21.6-5.1-43.6-9.9-65 -1.7-7.4-1.6-14.9-1.6-23.1 -25.8 25.7-56.6 44.7-81.4 70.6 -5.4-1.2-10.8-9.5-10.3-15.8 1-11.6 1.9-23.3-2.5-34.5 -0.5-1.4-0.2-2.6 0.5-3.8 21-3.4 39.7-14.2 60.1-19.5 2.9-0.8 4.7-3.6 6-6.3 0.7-1.7 2.1-2 3.7-1.7 7.4 1.2 14.1-0.8 20.5-4.3 9-4.8 17.5-10.3 25-17.1 3-2.7 5.8-2.6 7.9 0.8 2.1 3.3 5.5 5.9 6.2 10 0.3 2.9-1.2 5.4-1.6 8.1 -1.6 2-2.4 4.2-1 6.7 -0.3 3.1-1 6.2-1 9.3 -0.9 1.4-0.6 3.3-1.4 4.6 -1.5 2.4 1.6 0 1.1 1.2 0.8 0.6 0.9 1.6 1 2.4 0-0.1 0.3 0.1 0.3 0 0.1-0.3 0.3-0.6 0.4-0.9 0.4-2.2-0.5-4.2-1.2-6.2 -0.3-2.9 0.1-5.8 0.7-8.6 1.6-2.4 3.6-4.8 1.4-7.9 -0.4-2.8 1.4-5.3 1.6-8 4.7-5.3 10-9.6 17.3-10.6 3.3 1.1 3.1 3.9 3.2 6.6 0.1 0.3 0.2 0.6 0.3 0.9 -0.1-0.3-0.2-0.6-0.2-0.9 1-4 3.2-1.7 4.1-0.4 3.9 6.5 8.6 12.6 10.9 19.9 0.8-1.8 0.3-4.7 3-5.5 1.7-0.5 2.8 0.6 3.3 1.7 -1.5-7.2-4-14.3-9.3-20.2 -1.3-1.4-2.5-3.2-1.7-5.4 0.6-1.2 1.9-1.4 2.9-1.9 1.5-0.4 3.5 1.3 4.7-1 0.2-0.3 0.5-0.5 0.8-0.6 11.4-4.6 13-6.8 18.1 6.2 2.3 5.9 5.6 11.6 11.4 15.2 0.8 0.5 1.3 1.5 1.6 2.5 0.6 3.8-2.1 6.6-2.9 9.9 -2.7 11.2-4.1 22.6-5.8 33.9 -0.3 1.8-0.5 3.6-0.9 5.4 -0.8 3.8-0.2 7.3 2.3 10.3 1.3 1.6 2.5 3.2 2.1 5.4 -0.8 2.5-2.7 3.3-5.1 3.3 -12.1 0.8-23.2 4.8-34 10.2 -2.3 1.1-4.2 2.7-6 4.4 -13.1 6.5-26.3 12.7-38.9 20C399.3 393.2 397.2 394.3 395.5 391.7z" fill="#DA4549"/>
    <path d="M418.6 282.1c-0.7-0.9-1.5-1.8-2.2-2.7 -2.3-2.9-4.6-5.7-6.9-8.6 -2.9 2.5-5.7 5-8.7 7.4 -7.3 5.9-15.4 10.3-23.8 14.3 -6.7 3.1-13.6 2.4-20.5 1.7 -7.6-1.7-15.1-4-22.1-7.3 -0.1-0.9 0-1.5 1.1-1 7.2 1.6 14.3 4.2 21.9 4.1 3.7-0.3 7.3-0.4 11 0 5.5 0.3 9.8-2.8 14.1-5.5 8.7-5.4 18-10 24.4-18.6 1.9-2.6 2.6-5 2-8.2 -2.2-12.8-6-25.1-9.6-37.5 -0.3-1.3-0.6-2.5-0.9-3.8 2-0.7 3.5-2.7 6-2.4 2.1 0.1 3.2 1.4 4 3.2 4.9 11.3 7.8 23.1 8.1 35.5 0 1.5 0.1 2.9 1 4.2 1.2 1.8 3.1 3 4.3 4.8 3.2 4.7 3.2 4.7 7.7 1.8 1.9-1.2 3.8-2 6-0.6 2.2 3.1 4.2 6.3 1.8 10.2 -5.2 3.4-10.5 6.8-15.7 10.2C420.1 284 419.1 283.5 418.6 282.1z" fill="#FBC960"/>
    <path d="M290.3 320.1c6.2 10 6.1 21.1 4.7 31.9 -1.2 9.1 2 15.8 7.6 22.1 -2.5 1.9-4.9 3.9-7.4 5.8 -5.5-8.6-11.1-17.3-16.6-25.9 0.2-3.6-0.6-7.2-0.6-10.9 0.1-7.5-0.2-7.7-7.5-9.9 -0.5-0.2-0.9-0.6-1.2-1 -0.6-2-2.2-4.1 0.2-6 2.5-4.7 6.9-5 11.5-5.1C284.1 321 287.2 320.4 290.3 320.1z" fill="#FBC960"/>
    <path d="M239.6 314.1c-3.1-4.9-6.2-9.7-9.3-14.6 2-3.6 2.6-8 6.1-10.7 5 7.7 10 15.4 15 23.2C249.2 316.5 243.4 317.5 239.6 314.1z" fill="#FCFBFC"/>
    <path d="M239.6 314.1c4.1 0.2 8-0.6 11.8-2.1 2.8 1 5.5 2.2 8.3 2.9 2.4 0.6 3.7 1.3 2.3 3.9 -0.5 2.5-2.7 2.6-4.5 3.3 -4.4-1.2-8.3-0.5-11.5 3 -4.7 4-8.4 4.2-14.7 0.8 -1.3-0.6-3.2-0.5-3.3-2.4 -0.1-1.9 1.8-2 3-2.8C234 318.7 238 317.9 239.6 314.1z" fill="#F7DCC4"/>
    <path d="M256.9 320.8c1.2-1.8 3.3-1.6 5-2 3.7 1.2 5.9 3.9 7.4 7.3 0.3 2 0.6 3.9 0.9 5.9 -0.4 0.2-1.1 0.5-1.4 0.3 -3.7-3.9-9.2-5.4-12.3-10C256.5 321.7 256.7 321.3 256.9 320.8z" fill="#574F64"/>
    <path d="M335.4 285.9c-0.4 0.3-0.7 0.7-1.1 1 -1.3-0.6-2.7-1.2-4-1.8C332.1 285 333.9 284.5 335.4 285.9z" fill="#DBAF5A"/>
    <path d="M520 529.8c10 4.6 12.1 13.4 12.3 23.2 0.2 9.7-4.5 17-12.4 22 -3.4 2.2-7.7 1.6-11.6 0.3 3.7-3.3 7.4-6.6 9.8-11.1 3.3-6.2 3.4-12.6-1.6-17.4 -4.2-4-3.6-6.9-0.6-10.7C517.4 534 518.6 531.8 520 529.8z" fill="#F8A65D"/>
    <path d="M492.3 479.1c4.6-1.3 9.3-1.4 13.9 0C501.6 480.5 497 480.5 492.3 479.1z" fill="#564758"/>
    <path d="M431.2 230c-0.1-5.2-2.4-9-6.8-12 -8-5.4-11.6-14.7-18.4-21.2 -2.2-2.1-2-4.4-0.2-7.1 3.2-4.9 6.3-9.9 5.6-16.1 -0.2-2 0.8-3 2.4-3.9 5.3-3.1 10.5-6.2 16-9.5 0.1 1.2 0.1 2.2 0.2 3.2 0.8-0.4 1.8-0.7 2.5-1.3 5.6-4.7 11.2-9.4 16.8-14.1 0.6 0 1.3 0 1.9 0 3.2 4.2-1.1 6.8-1.9 9.8 0.9-1 2.4-1.9 4-0.8 1.8 1.2 1.6 3.1 1 4.9 -2.2 6.2-4.2 12.5-5.3 18.9 0.1-0.1 0.3 0.2 0.4 0.1 1.6-0.4 2.9-0.7 4 1 0.7 1.2-0.5 3.6 1.8 3.5 2.6-0.1 5.3 0 7.4-2.3 1.9-2.1 3.7-4.3 6.2-5.7 0.6-0.3 1.3-0.3 2-0.2 0.7 0.2 1.3 0.7 1.7 1.4 0.3 5.5-2.6 10.1-4.6 14.8 -2.5 5.9 2 11.9 7.9 13.9 0.5 0 1 0.1 1.5 0.1 1.9 0.3 4.3-0.6 5.5 1.9 -1.3 3.8-4.8 5.4-7.9 6.9 -10.4 5.3-20.7 10.5-29 18.8 -1.4 1.4-3.2 1.7-5.1 1.5C433.5 236.7 431.5 235.3 431.2 230z" fill="#F8DDC4"/>
    <path d="M475.7 208.9L475.7 208.9c-0.8-0.2-1.2-0.8-1.3-1.5 2.5-5 7.4-8.1 10.2-12.9 0.5-0.7 1-1.5 1.3-2.3 0.7-2 1.6-3.9 2.9-5.7 0.5-1 1.1-1.9 1-3 -0.5-0.5-1-0.3-1.5-0.1 -1.2 0.6-2.3 1.5-3.6 1.9 -1 0.3-1.9 0.4-2.8-0.2 -0.3-0.4-0.5-0.8-0.6-1.3 -0.2-1.6 1-2.7 1.3-4.1 3.6-5.3 7.4-10.6 8.1-17.4 0.3-1.4 0.8-2.6 1.4-3.8 0.3-0.3 0.7-0.6 1.1-0.7 4 1.7 7.9 3.4 11.9 5.2 2.7-0.2 3.6 1.5 4.6 3.6 2.5 4.9 4.9 10.1 9.7 13.4 3.6 7 8.9 12.7 13.4 19 1.1 1.5 3.3 2.6 2.5 5 -3.6 2.7-7.6 2.8-11.6 1 -3-1.4-5-0.8-6.2 2.2 -1.3 2.7-3.2 4.1-6.2 3.2 -1.3-0.4-2.2 0.4-3.3 0.6 -0.8 0.1-1.8 0.1-2.3-0.5 -3.4-3.1-6.9-4.1-10.9-1.3 -2.6-2.3-1.6-7.1-5.9-8.1 -0.8-0.5-1.5-1.4-2.4-0.1 -1.7 2.5-4.2 4.2-6.4 6.2C478.7 207.7 477.3 208.5 475.7 208.9z" fill="#71595D"/>
    <path d="M446.2 184c1.2-9 3.9-17.7 7.6-26.8 -4.5 2-5.6 6.8-10.5 8.2 2.8-6.2 5.4-11.7 7.9-17.3 12.8-0.9 24.8 1.9 36.1 8 0.4 0.9 0.5 1.9 0.1 2.8 -3.6 3.9-5.6 8.9-8.8 13.1 -2.2 2.9-4.7 5.1-8.1 6.2 -5.4 7.2-12.5 11.2-21.5 11.2 0.7-2.5 3.4-4.6 3-9 -1.9 2.7-3.3 4.6-4.7 6.6C444.7 186.7 446.1 185.1 446.2 184z" fill="#71595D"/>
    <path d="M518.3 181.1c-4.6-1.8-6.7-5.7-8.3-9.9 -1.1-3-2.7-5.7-4.7-8.1 0.4-1.5 0.8-2.9 1.2-4.4 2.3 1.7 3.9 3.9 4.9 6.8 1.5 4.5 4.6 5.3 8.1 1.6 0.5-0.7 0-1.8 0.9-2.2 5.8 3.9 12.5 5.2 19.2 6.3 3.8 0.6 4.5-2.7 6.4-4.4 6.4 6.2 5.9 15.5 10.1 22.7 0.6 1.1 1.1 2.5 0.2 3.8 -0.9 1.6-2.4 2-4.2 1.9 -5.9-0.2-10.7 2.4-15.2 5.8 -2.6 1.1-4.4-0.4-5.2-2.4C528.9 191.3 523.4 186.3 518.3 181.1z" fill="#544D64"/>
    <path d="M474 126.7c-1.9-3.2-5.7-6.8-4.1-10 1.1-2.2 6.1 0.1 9.4 0.3 7.2 0.4 13.6 3.7 21.1 6.4 -4.6 2.4-8.4 4.4-12.2 6.4C483.4 128.7 478.7 127.7 474 126.7z" fill="#F8A65D"/>
    <path d="M438.3 123c-3.5-6-1-10.5 6.4-10.8 4.7-0.2 9.5 0.4 15.9 0.6 -5.2 4.3-9.1 7.6-13.1 10.8C444.5 123.4 441.4 123.2 438.3 123z" fill="#F8A55C"/>
    <path d="M509 137.1c0-1.2 0.1-2.3 0-3.5 -0.2-2.6-2.7-6.3-0.9-7.4 2.4-1.5 5.1 1.9 7.7 3.1 2.1 0.9 4 2.3 6 3.4 8.4 4.9 8.4 5.1 0.2 10.1C517.7 140.9 513.3 139 509 137.1z" fill="#F8A65D"/>
    <path d="M486.3 157.8c0.3-0.6 0.6-1.2 1-1.8 2 0.6 4.1 1.3 6.1 1.9 0 0-0.1 0.1-0.1 0.1 -0.8 1.2-0.7 2.7-1.4 3.9 -1.2 4.5-2.9 8.7-5.7 12.4 -1.6 2.2-3.3 4.6-6.7 4.2 -0.5-0.2-0.9-0.6-1.1-1 -1.1-2.7 0.4-4.8 1.5-6.9C482.2 166.4 484.4 162.2 486.3 157.8z" fill="#735B5E"/>
    <path d="M453.2 123.9c0.4-0.5 0.8-1.1 1.3-1.5 9.8-9.3 9.8-9.3 14.7 3.5C463.9 125.2 458.6 124.5 453.2 123.9z" fill="#F7A45C"/>
    <path d="M413.5 123c-0.5-7.6 2.2-9 15.4-7.2 -2.9 2.6-5.4 4.9-7.8 7.1C418.6 123 416 123 413.5 123z" fill="#F8A65D"/>
    <path d="M492.4 130.9c0.2-0.2 0.5-0.5 0.7-0.6 10.6-6.2 10.6-6.2 12.9 5.6C501.5 134.2 497 132.6 492.4 130.9z" fill="#F6A45C"/>
    <path d="M425.1 123c3.4-3.9 6.7-7.8 10.1 0C431.8 123 428.4 123 425.1 123z" fill="#F9A55C"/>
    <path d="M524.4 144.1c5.3-4.3 6.7-1.4 6.9 3.7C529 146.5 526.7 145.3 524.4 144.1z" fill="#F2A05C"/>
    <path d="M478.2 91.5c0 8.3-7.7 15.1-17.2 15.2 -9.4 0.1-17-6.8-16.9-15.3 0.1-8.3 7.5-15 16.8-15C470.3 76.4 478.2 83.3 478.2 91.5z" fill="#DA4549"/>
    <path d="M513.7 119.2c-9.5-0.1-16.6-6.5-16.5-15.1 0.1-8.6 7.6-15.3 17.1-15.1 9.2 0.2 16.8 7.1 16.7 15.2C530.9 112.7 523.3 119.3 513.7 119.2z" fill="#DA4549"/>
    <path d="M425.4 526.9c-7.7-0.1-12.5-5.8-14.1-17C418.2 513.8 421.7 520.5 425.4 526.9z" fill="#F26F4F"/>
    <path d="M415.3 259.5c-1.6-15.7-3.7-31.2-11-45.5 2.6-3.4 4.3-2.9 5.7 1.1 2 6.1 7.2 10.8 12.1 12.3 2.8 0.9 4.9 3.9 8.2 3.5 1.3 2.7 3.9 5.1 2.5 8.7 -6.1 4-10.5 9.3-12.9 16.3C419.2 257.8 418 259.8 415.3 259.5z" fill="#583E43"/>
    <path d="M432.3 238.8c-2.5-2.2-1.8-5.2-2.1-7.9 0.3-0.3 0.7-0.5 1-0.8 1.9 4.6 6.4 4 10.1 5.1 2.1 4.2-0.1 6.1-3.8 7.2C434.8 242.6 432.7 241.9 432.3 238.8z" fill="#513643"/>
    <path d="M484.2 354c-5.7-5.5-7.1-11.7-5.3-19.7 3.3-15.2 3.1-31.1 10.2-45.5 0.4-2.4 2.3-3.1 4.2-3.8 9.6-3.5 17.8-8.9 23.6-17.5 1.1-1.6 2.4-2.8 4.5-2.5 14.3 7.5 28.6 14.8 43.9 20.1 5.1 1.7 10.2 3 15.6 2.8 4.3 10.4 12.1 18.2 19.7 26.1 11.7 12.3 22.5 25.4 30.2 40.7 8.6 17.2 7 34.1-0.8 50.9 -3.5 7.6-9.2 12.9-16.8 16.4 -17.1 8-35.3 11.5-53.9 13.7 7-9 10.7-19.2 11.7-30.6 0.6-6.5-1.3-11.1-8.4-12.2 -4.7-1.3-9.5-2.5-14.2-3.8 -1.9 0.7-3.9 1-6 0.5 -1.2-0.5-2-1.6-2.9-2.4 -1.7-0.2-3.3-0.3-5-0.5 -8.4 1.2-15.9-1.4-23.3-4.9 -2.8-1.3-5.9-2.1-8.9-3 -3.2-1.3-5.5-3.6-6.7-6.8C492.8 365.5 489.4 359.2 484.2 354z" fill="#583E43"/>
    <path d="M495.5 209c2-7.5 2-7.5 8.6-2.4 1.4 1.1 2.8 2.3 4.1 3.4 3.6-0.3 5.5 2.3 7 4.7 1.8 2.9 4.2 4.6 7.2 5.6 5.7 1.9 10.1 5.3 13 10.6 1.8 2.1 1.5 4.4 0.8 6.8 -6.5 9.8-14.7 18.3-20.2 28.9 -4.4 8.4-12.7 12.5-20.7 16.5 -3.9 2-7.3 0.6-10-2.9 -5.4-7-8.4-15-11.5-23.1 -1.2-3.2-0.9-6.5 0.2-9.8 3.4-10.6 7-21.1 10.6-31.7 0.7-2 1.3-4.2 3.7-4.9 1.2-0.1 1.9 0.6 2.5 1.5 1.5 3.2 0.9 6.6 0.5 9.8 -1 7.8-0.7 15.6-1.6 23.4 -0.1 0.8-0.1 1.7 0.5 2.7 3.4-3.9 5.8-8.3 7.9-12.9 -1.9 3.7-1.9 3.7-5.1 4 -1.4-1.5-2.2-3.3-2.2-5.4 0.2-5.5 1-10.9 1.5-16.3C492.4 214.3 492.2 210.9 495.5 209z" fill="#583E43"/>
    <path d="M495.5 209c-0.8 8.3-1.6 16.5-2.4 24.8 0 1.8-1.5 3.8 1 5.1 2.5-4.1 4.8-8.3 9.5-11 -4.7 9.1-9.4 18.1-15.2 29.3 -1.9-16.2 0.4-30.2 1.1-44.1 0.3-1 0.8-2.1-1.1-1.9 -3 8.8-5.1 18-9.1 26.4 -6.6 13.8-2.1 25.5 4.9 37.1 5.3 8.9 6.6 8.8 15.7 3.5 7.4-4.3 12.8-9.9 17-17.5 4.8-8.8 10.5-17.2 19.3-22.9 -0.2 8.5-7.8 13-10.9 20 -1.1 2.5-2.6 4.9-3.9 7.4 -7.6 12.3-18.3 20.2-32.3 23.8 -8.7-2.8-11.8-10.7-14.4-17.9 -2.6-7.2-5.5-8.6-11.7-4.8 -1.2 0.8-2.8 1-4.2 1.5 -8.4-0.4-12.8-3.4-13.6-9.4 0.6-2.2 2.3-3.1 4.2-3.9 1.1-0.5 2.2-0.7 3.4-0.9 8.7-1.6 15.2-5.4 16.5-15.2 0.3-2.5 2.2-4.5 3.2-6.8 0.5-1.2 1.4-2.1 1.5-3.4 2.1-6.6 3.6-13.3 8.4-18.7 -2.2-0.2-4.4-0.3-6.6-0.5 1.2-0.9 2.3-1.8 3.5-2.8 2.4-1.2 5-2.1 6.4-4.9 0.7-1.4 2-2.2 3.7-1.5C497 199 495.1 204.7 495.5 209z" fill="#FBC960"/>
    <path d="M535.4 230.9c-5.5-4.4-11.8-7.2-18-10.4 -3.8-2-6.1-6.9-9.1-10.5 1.4-1.6 2.3-4.3 5.2-1.6 1.6 1.5 1.8-1.1 2.9-1.5 5.8-2.3 11-1.2 13.9 2.9 -0.2 5.3 2.1 10 3.4 14.9C534.2 226.8 534.8 228.9 535.4 230.9z" fill="#867072"/>
    <path d="M502.2 376.8c11.1 2.3 20.9 8.9 32.3 10.1 -0.5 0.2-0.9 0.4-1.4 0.5 -15.7 3.6-15.7 3.6-13.3 20.1 0.3 2.3 1 4.4-2.5 4.5 -2.2 0.9-4.5 0.5-6.8 0.3 -3.4-0.3-6.8-0.9-10.2 0.7 -1.5 0.7-2.9 0.3-4-1 -2.7-0.6-3.9 1-4.8 3.2 -2.2 6.1-4.7 12.1-6.6 18.3 -1 3.1-2.3 3.7-4.9 1.8 -0.9-0.7-2.1-1.1-3-1.8 -11.1-9.5-21.9-11-32.4 0.9 -1.8 2-3.6 2-5.3-0.4 -0.8-1.2-1.9-2.3-3-3.4 -11.5-12.1-8-12.2-23-2.2 -1.2 0.8-2.6 1.6-3.6 2.7 -5.1 5.8-10.8 7.6-17.5 2.7 2-4.6 3.9-9.2 5.9-13.8 0.2-2.2 1.3-3.7 3.3-4.7 14.6-7.3 29-14.9 44.2-21 1.1-0.4 2.3-0.5 3.4-0.7 14.3-2.4 27.7-7.1 40-15C493.1 375.3 497.5 375.2 502.2 376.8z" fill="#DA4549"/>
    <path d="M480.3 438.5c-12.1 3.3-22.5 2.1-32.8 0 -2.2-0.4-1.7-1.7-0.3-2.6 3.8-2.7 7.6-5.4 11.3-8 1.2-0.9 2.4-0.8 3.7 0C467.7 431.1 473.3 434.3 480.3 438.5z" fill="#DA4649"/>
    <path d="M501.3 414c4.6 0 9.3 0 15.3 0 -8.7 9.3-18.3 14.9-29.6 21.6 3.2-8.1 5.8-14.7 8.3-21.2C497.2 412.4 499.2 412.7 501.3 414z" fill="#DA4649"/>
    <path d="M542.3 388.1c2 0.4 4 0.8 6 1.2 -7.4 5.6-14.8 11.2-22.2 17 -2.6 2.1-3.7 1.7-3.8-1.6 0-0.2 0-0.3 0-0.5 0.1-14.8-4.5-11.8 16.7-15.3C540 387.9 541.3 388.5 542.3 388.1z" fill="#DA4549"/>
    <path d="M437.7 436.6c-9.5-1.6-18.1-4.7-27.6-2.3C421.1 421.2 427.4 421.7 437.7 436.6z" fill="#DA4649"/>
    <path d="M387.2 448.5c0.2-4.6 2.4-8.6 4.2-12.7 1.5 0.6 3 1.2 4.5 1.9 2 0.9 2.4 1.8 0.4 3.4C393.2 443.4 390.3 446 387.2 448.5z" fill="#D94749"/>
    <path d="M501.3 414c-2 0.1-4 0.2-5.9 0.4 0.3-0.8 0.6-1.6 0.9-2.3 7-1.1 14-0.7 21 0C512.2 414.5 506.4 411.4 501.3 414z" fill="#FDD261"/>
    <path d="M542.3 388.1c-1.1 0.2-2.1 0.5-3.2 0.7 0.1-0.5 0.2-0.9 0.4-1.4C540.4 387.7 541.4 387.9 542.3 388.1z" fill="#F08354"/>
    <path d="M536.3 200c1.7-5.6 7-5.4 11.2-6.6 2.8-0.8 5.9-0.3 8.9-0.3 0.6 1.6 1.3 3.3 1.9 4.9 -8.1-3.3-14.2 1.7-20.6 5.1C536.1 202.5 535.6 201.5 536.3 200z" fill="#F6DBC2"/>
    <path d="M368.3 290c-3.7 0.9-7.3 0.8-11 0C361 288.5 364.6 288.5 368.3 290z" fill="#4D3441"/>
    <path d="M530.2 209.9c-4.6-1-9.3-1.9-13.9-2.9 0.4-5.4 1.9-8.4 7.9-4.4 3.2 2.1 7.3 2 11.2 1.4 0.3-0.3 0.6-0.3 0.9 0C534.2 205.9 532.2 207.9 530.2 209.9z" fill="#6D4C51"/>
    <path d="M536.2 204c-0.3 0-0.6 0-0.9 0 -6.3-7.1-13-14.1-17.1-22.9 6.7 3.7 13.3 7.5 14.3 16.2 0.2 1.8 1.7 2.8 3.6 2.7 0.4 1 0.9 2.1 1.3 3.1C537.1 203.4 536.7 203.7 536.2 204z" fill="#6D4C51"/>
    <path d="M520.4 164.7c-0.3 0.7-0.6 1.5-0.9 2.2 0.7-2-1.5-3-1.7-4.8C520 161.7 520.1 163.3 520.4 164.7z" fill="#5C5469"/>
    <path d="M79.3 462c4-1.6 8-1.5 12-0.1C87.3 462.9 83.3 463.4 79.3 462z" fill="#4F3641"/>
    <path d="M231.3 325.9c1.7-1.8 3.6-1 5.4-0.3 3.2 1.2 6.2 1.4 8.6-1.7 1.5-0.4 2.3 0.5 3 1.6 1.8 7.5 8.2 10.5 13.8 14.3 2.1 1.4 4.5 2.1 4.4 5.2 -2.8 3.1-4.3 6.3-0.9 9.9 -15 4-23.4-6.4-32.5-15.1 -0.4-0.3-0.5-1-0.9-1.2C224.7 334.8 227 330.5 231.3 325.9z" fill="#544D64"/>
    <path d="M449.4 395c-17.3 7.8-34.7 15.4-51.2 25 -3.4-4.8-6.7-9.8-10.4-14.5 -3-3.8-2.4-6.4 1.7-8.7 2.2-1.3 4.7-2.6 6-5.1 2.1 0.7 3.4-0.9 4.9-1.8 12.5-7.2 25.2-14 38.7-19.3 2.6 0.2 3.6 2.1 4.4 4.2 1.8 5 3.8 9.9 6.1 14.7C450.5 391.3 451.2 393.2 449.4 395z" fill="#624752"/>
    <path d="M266.5 344.9c-4.1-3.2-8.8-5.6-13.1-8.3 -3.5-2.2-4.2-6.6-8.2-8.1 -1.2-0.5 1.7-1.3 2.1-2.5 2.1-4.6 6.1-4.8 10.3-4.2 5 2.4 10 4.9 12.8 10.2 0 0-0.1 0-0.1 0 2.9 2.4 6.9 4 6.1 9 -0.3 2.2-0.8 4.1-3.2 4.9C271.3 343 269.5 340 266.5 344.9z" fill="#F7DDC4"/>
    <path d="M273.2 345.9c2.9-5.5-1.1-9.5-2.9-13.9 9.8 0.6 9.9 0.6 9.9 10.6 0 3.8 1.1 7.9-1.6 11.4C276.8 351.3 275 348.6 273.2 345.9z" fill="#585065"/>
    <path d="M446 258.1c2.1 6 8 7.1 12.8 9.6 1.4 1 3.2 1.6 4.1 4.2 -3.2-1.4-5.9-2.5-8.6-3.7 -1 0.3-2.3-0.5-3 1 8.3 9.1 13.3 19.4 12.7 33 -1.8-3.2-3.1-5.6-4.8-8.7 -1.7 4.4-1.4 8.9-4.6 13.2 -0.3-11.4-7.3-18.9-11.9-27.4 -1.5-2.7-1.2 0-1.3 0.8 -0.4 0.3-0.7 0.3-1.1-0.1 -1.1-2.3-2.1-4.6-3.2-6.9 -1-3.4-2-6.8-3-10.2 -4.1-5.4-2.7-16.3 2.8-21.7 2.4-1.3 3.8-3.3 4.2-6 1.7-0.1 2.6-1.3 3.6-2.4 10.5-10.9 24.7-15.9 37.4-23.3 -1.3 6.9-4.2 13.3-6.8 19.7 -2.2 1-4.7 1.6-6.6 3.2 -2.5 2.1-5.3 3.5-8.5 4.1 -0.7 0-1.3 0.1-2 0.3 -0.6 0.2-1.2 0.5-1.8 0.7 -0.4 0.2-0.8 0.3-1.2 0.5 -2.7 0.6-1.5 3.4-2.6 4.9 -3.3 0.4-5.6 3.6-6 8.3C446.5 253.5 447.1 255.9 446 258.1z" fill="#71595D"/>
    <path d="M449.4 395c-3.4-8.1-6.9-16.3-10.3-24.4 0.3-0.7 0.5-1.7 1-2.1 11.3-7.1 23.7-11.3 36.8-13.3 0.7-0.1 1.5 0.5 2.3 0.8 2 1.2 3.7 2.7 4.7 5 2 4.4 3.6 8.9 5.4 13.4 0.8 2 0.7 3.9-0.3 5.8 0 1.7-1.3 2.2-2.4 2.8 -10.8 6-22.6 9.5-34.4 12.6C451.4 395.9 450.3 395.2 449.4 395z" fill="#F4F3F7"/>
    <path d="M489.1 380.2c-3.3-8.1-6.5-16.1-9.8-24.2 1.7-0.7 3.3-1.4 5-2 3.3-0.4 5.1 1.3 6.7 4 2.7 4.7 5.4 9.5 7.2 14.6 0.7 2 2.2 3.2 4 4.1C497.5 376.9 493.4 379 489.1 380.2z" fill="#624752"/>
    <path d="M416 296.2c-1.7 0.8-3.4 1.6-5.1 2.4 3.8-3.9 6.2-7.4-0.2-12.1 4 0.3 4.6 2.9 6.1 4.2 0.9-0.1 1.8 0.2 2.7 0.4 0.6-0.2 1.2-0.5 1.9-0.7 1.5-0.3 3.2-2.6 4.3-0.5 0.9 1.6-1.7 2-2.8 2.7 -1.4 0.9-3.2 1.4-1.6 3.7 0.8 1.1 3 2.3 1.2 3.6 -1.8 1.3-2.4-1.6-3.9-2.2C417.3 297.9 417 296.4 416 296.2z" fill="#623C3A"/>
    <path d="M417.5 307.8c1.8-0.5 2.9-2.7 6.7-2 -7.9 3.5-5.1 7.1-0.1 10.6 -3.6 0.5-4.2-1.9-5.8-2.4 -0.6 0.1-1.2 0-1.8-0.4 -0.4-0.5-0.8-0.9-1.4-1.2 -2 1.3-4 2.6-6 4 4.4-4.1 7-8-1.4-13 4.7 0 5.5 2.7 7.4 3.6C416 306.8 416.7 307.5 417.5 307.8z" fill="#613B3A"/>
    <path d="M417.5 307.8c-1.3 1.1-1.9 0.3-2.4-0.8 0.3-3.6 0.6-7.2 0.9-10.7 1.6-0.8 2 0.4 2.5 1.5C418.2 301.1 417.8 304.4 417.5 307.8z" fill="#F6E6E7"/>
    <path d="M419.5 291.1c-1.1 1.3-2 0.8-2.7-0.4 0.6-2.9 1.2-5.7 1.7-8.6 1 0.4 1.9 0.7 2.9 1.1C420.8 285.8 420.2 288.5 419.5 291.1z" fill="#FAF1EF"/>
    <path d="M415.1 312.3c1.1-0.9 1.8-0.3 2.4 0.7 0.6 1.2 0.3 2.4 0.3 3.6 -0.4 1-1 1.7-2.2 1.2C415.3 316.1 415.2 314.2 415.1 312.3z" fill="#EFBEC0"/>
    <path d="M417.1 317c0.1-1.3 0.2-2.6 0.3-3.9 0.3 0.3 0.6 0.6 0.9 0.9 -0.5 2.3 1 4.9-1 7C416.3 319.7 416.4 318.3 417.1 317z" fill="#D6393D"/>
    <path d="M451.3 269.1c-0.4-0.6-1.5-1.3-0.5-1.9 1.2-0.8 2.4 0.4 3.5 0.9C453.3 268.5 452.3 268.8 451.3 269.1z" fill="#E6AC5C"/>
    <path d="M417.1 317c0 1.3 0.1 2.6 0.1 4 -1.5-0.5-1.9-1.6-1.8-3C416 317.6 416.6 317.3 417.1 317z" fill="#EDA5A7"/>
    <path d="M440.3 280c0.3 0 0.7 0 1.1 0.1 0.6 0.8 1.3 2.3 0.4 2.5C440.4 282.8 440.6 281 440.3 280z" fill="#AA4E52"/>
    <path d="M437 241.2c-2.1 7.1-3.7 14.2-2.8 21.7 -2.2 1.7-4.6 3.2-6.7 5.1 -3.1 2.8-5.6 3-6.2-1.6 -0.6-3.9-3.6-4.9-6-6.8 3.3-4.9 4.4-11.1 8.6-15.4 2.4-2.4 4.4-5.4 8.4-5.3C433.9 239.6 435.4 240.4 437 241.2z" fill="#F8DDC4"/>
    <path d="M257.5 321.9c-3.4 1.4-6.9 2.8-10.3 4.2 -0.6-0.7-1.3-1.5-1.9-2.2 2.7-5.5 6.8-5.6 11.6-3C257.1 321.2 257.3 321.5 257.5 321.9z" fill="#FCFBFA"/>
    <path d="M484.2 181.3c-0.6 0.9-1.3 1.9-1.9 2.8 -0.4 0.3-0.8 0.5-1.2 0.7 -3.4 0-7.1-0.1-8.3 3.8 -1.2 4.2-4 8.7 0.5 12.9 1.4 1.3 2.9 2.9 2.1 5.2 0.1 0.7 0.2 1.4 0.3 2.2 -7.4-1.5-11.7-8.4-9.5-15.3 1.6-4.9 3.4-9.7 5.1-14.5 2.1-3.8 4.8-2.6 7.5-0.8l0.3 0C481.1 178.8 483.7 178.3 484.2 181.3z" fill="#FBC961"/>
    <path d="M478.9 178.3c-2.5 0.3-5 0.6-7.5 0.8 -0.3-0.4-0.6-0.7-1-1.1 5.3-6.7 10.6-13.5 15.9-20.2C486.1 165.5 481.2 171.4 478.9 178.3z" fill="#F5DBC2"/>
    <path d="M446.2 184c0.3 1 0.7 1.9 1 2.9 -0.4 0.3-1.3 1-1.3 1C444.7 186.5 445.6 185.2 446.2 184z" fill="#BEA498"/>
    <path d="M475.4 206.8c-6.5-5-8.6-10.5-4.7-18.7 2.8-5.8 5.3-7.3 10.7-4.1 0.2 1.1 1.2 1.6 1.8 2.4 0.2 0.4 0.3 0.8 0.3 1.3 0 0.7-0.1 1.5-0.6 1.8 -2.3 1.1-2.8 3.1-2.8 5.3 0.1-0.2 0.1 0 0.1-0.1 2.9-3.1 3.7-3 6 0.4C483.6 199.7 479.8 203.5 475.4 206.8z" fill="#DA4649"/>
    <path d="M484.2 181.3c-1.9-0.7-4.2-0.6-5.1-2.9 5.8-4.5 9.8-10.4 12.4-17.2 0.9-0.2 1.3 0.1 0.9 1C491.3 169.2 488.9 175.8 484.2 181.3z" fill="#F5DBC2"/>
    <path d="M486.3 194.9c-5.2-3.6-5.3 1.7-7.1 4 -1 0.1-1.6-0.2-1.1-1.4 3.3-5-0.2-6.5-4.5-7.8 2.8-2.6 7.7 3.8 8.8-2.7 2-1.7 2.9 0 3.6 1.3 0.8 1.4 1.1 3 1.4 4.6C487 193.7 486.7 194.3 486.3 194.9z" fill="#F9EBEC"/>
    <path d="M487.4 193.1c-2.3-0.9-5.1-1.3-3.2-5.1 0.6-1.3-1-1-1.9-0.8 0-0.4-0.1-0.7-0.1-1.1 -0.2-0.2-0.3-0.5-0.2-0.7 0.1-0.2 0.2-0.3 0.3-0.3 0.7-0.3 1.4-0.5 2.1-0.8 2.7-0.4 5.2-0.5 6.1 2.9C489.5 189.2 488.4 191.1 487.4 193.1z" fill="#DA4B4D"/>
    <path d="M489.2 199.8c-4 1.1-4.3 8-10 6.3 4.1-3.4 8.3-6.9 11-9.2C490.4 196.6 489.8 198.2 489.2 199.8z" fill="#D7474A"/>
    <path d="M487.3 182.3c1.7-1.4 3.5-2.9 5.4-4.5 1.2 2.7-0.2 4.5-0.8 6.4C489.6 185.3 487.8 185.3 487.3 182.3z" fill="#F3D8BF"/>
    <path d="M487.3 182.3c1.5 0.7 3.1 1.3 4.6 2 -0.5 1-0.9 1.9-1.4 2.9 -2-1-4.1-2-6.1-2.9C485.3 183.6 486.3 183 487.3 182.3z" fill="#F3C262"/>
    <path d="M482.3 185c0 0.3 0 0.7 0 1 -0.6 0.1-1.2 0.3-1.9 0.4 0.3-0.8 0.7-1.6 1-2.5 0.3 0 0.6 0 0.9 0.1C482.3 184.4 482.3 184.7 482.3 185z" fill="#955256"/>
    <path d="M492.5 162.2c-0.3-0.3-0.6-0.7-0.9-1 0.3-1.2 0.2-2.6 1.7-3.2C493 159.4 492.8 160.8 492.5 162.2z" fill="#D4BAA9"/>
    <path d="M452.2 101.8c-1.5-0.9-3.1-1.6-1.5-3.4 0.6-0.7 1.5-1.4 2.3-1.8 5.1-2.9 5.5-5.7 0.4-9.1 -1.2-0.8-4-2.1-2.1-4.2 1.9-2.1 3.4 0.6 4.3 1.7 4.1 5.4 7.9 3.8 11.9 0 1.2-1.1 3-3.2 4.6-1.1 1.8 2.3-1.2 3.2-2.4 3.9 -4.7 2.9-5 5.5-0.5 8.8 1.2 0.8 3.5 2 2.1 3.8 -1.5 2-3.2-0.2-4-1.2 -4.5-5.2-8.5-4.5-12.5 0.6C454.2 100.7 453 101.1 452.2 101.8z" fill="#F8A55C"/>
    <path d="M527.5 100.7c-0.8 2.5-3.1 2.5-4.8 2.9 -4.9 1.2-6.6 3.1-3 7.6 0.9 1.1 2.6 2.9 0.3 4.2 -1.9 1.1-2.8-0.9-3.2-2.2 -2.2-6-5.9-6.6-11.1-3.7 -1.3 0.8-3.7 2.5-4.8 0.1 -1.2-2.6 1.9-2.8 3.3-3.1 6.2-1.4 7.4-4.4 3.6-9.5 -0.8-1.1-2.3-2.9 0.1-4.2 2.1-1.1 2.8 0.7 3.2 2 1.9 6.8 6 7.7 11.8 4.7C524.5 98.8 526.4 98.2 527.5 100.7z" fill="#F8A55C"/>
    <path d="M494.1 238.9c-0.3 0.6-0.4 1.4-0.9 1.7 -1 0.7-1-0.4-1-0.9 0.2-2 0.6-3.9 0.9-5.9C493.4 235.5 493.8 237.2 494.1 238.9z" fill="#85654B"/>
    <path d="M488.4 211.1c0-1 0.5-2.5 1.3-1.9 1.3 0.9 0.4 2.5-0.2 3.8C489.1 212.4 488.7 211.8 488.4 211.1z" fill="#BB9355"/>
    <path d="M446 258.1c-3.9-7.1-0.7-12.8 4-18.2 1.1 0.2-0.5 4 2.5 2.4 0.4-1.4 1.4-1.7 2.6-1.8 0.4-0.1 0.9-0.2 1.3-0.3 0.6-0.2 1.3-0.5 1.9-0.6 0.4-0.1 0.9-0.3 1.3-0.4 2.9-1.9 6.1-3.4 7.9-6.6 0.7-1.3 2.2-1.4 3.4-1.8 1.3-0.3 2.4-0.1 3.2 1.1 -1.9 5.5-4.1 10.9-5.7 16.4 -0.8 2.5-2.3 3.4-4.5 4.1C458 254.2 452 256.1 446 258.1z" fill="#F8DDC4"/>
    <path d="M474.2 231.8c-1.3 0-2.6 0.1-3.9 0.1 -0.5-0.6-1.6-0.1-2.1-1 2.3-1.3 4.4-3.4 7.3-1.7C475.1 230.1 474.6 230.9 474.2 231.8z" fill="#5B4146"/>
    <path d="M468.2 230.9c0.7 0.3 1.4 0.7 2.1 1 -3.4 3.3-5 8.7-10.9 8.9 -1.5-1.2-1.7-2.7-1.1-4.4 0.3-0.5 0.6-0.9 0.9-1.3C462.1 233.7 465.2 232.3 468.2 230.9z" fill="#543946"/>
    <path d="M456.1 241.9c-1.2 0.1-2.4 0.2-3.6 0.3 -2.8-3.8 0.3-4.8 2.8-6.1 1.5 1.2 1.5 2.9 1.6 4.7C456.8 241.2 456.5 241.6 456.1 241.9z" fill="#503543"/>
    <path d="M459.1 235c0.1 0.3 0.1 0.5 0.1 0.8 -0.9 1.6 0.1 3.5-0.7 5.1 -0.5 0.3-1 0.7-1.5 1 -0.5-2.3-1.2-4.7 0.5-6.9C458 235.1 458.5 235.1 459.1 235z" fill="#FDFDFD"/>
    <path d="M457.4 235.1c-0.2 2.3-0.3 4.6-0.5 6.9 -0.3 0-0.6 0-0.8-0.1 0.1-0.3 0.1-0.6 0.1-0.9 -0.5-1.6-0.6-3.3 0.1-4.9C456.6 235.7 457 235.4 457.4 235.1z" fill="#A3959D"/>
    <path d="M456.2 236.1c0 1.6-0.1 3.3-0.1 4.9 -0.3-1.6-0.5-3.2-0.8-4.8C455.6 236 455.9 236 456.2 236.1z" fill="#422634"/>
    <path d="M452.9 378.8c-4.9 0.8-3.5-3.8-4.9-5.9 -1.5-2.3 0.6-3.2 2.2-4.1 6.1-3.2 12.4-5.7 18.9-7.6 2.8-0.8 4.4-0.3 5.8 2.6 8.3 17 8.4 16.9-9.2 23.3 -2.5 0.9-5.1 1.6-7.6 2.5 -3.6 1.3-4.2-1.4-5-3.7 -0.9-2.3-3.2-4.8 1.1-6.2 0.1-0.3 0.8-0.7 0.3-1C454.1 378.5 453.4 378.7 452.9 378.8z" fill="#624752"/>
    <path d="M452.9 378.8c2.8-1.5 5.6-3.2 9.8-3.1 -2.5 3.2-5.8 3-8.5 4.2C453.8 379.5 453.3 379.1 452.9 378.8z" fill="#E6E3E7"/>
    <path d="M478.1 197.6c0.4 0.5 0.8 0.9 1.1 1.4 -0.4 1.3-0.6 2.8-2.4 3.7C475.8 200.5 477.3 199.1 478.1 197.6z" fill="#F7DFE0"/>
    <path d="M458.4 240.9c0.2-1.7-1-3.6 0.7-5.1 0.1 1.7 0.1 3.3 0.2 5l-0.4 0.1L458.4 240.9z" fill="#71595D"/>
  </g>
</svg>